<?xml version="1.0" standalone="no"?>
<!DOCTYPE svg PUBLIC "-//W3C//DTD SVG 20010904//EN"
 "http://www.w3.org/TR/2001/REC-SVG-20010904/DTD/svg10.dtd">
<svg version="1.0" xmlns="http://www.w3.org/2000/svg"
 width="612.000000pt" height="408.000000pt" viewBox="0 0 612.000000 408.000000"
 preserveAspectRatio="xMidYMid meet">

<g transform="translate(0.000000,408.000000) scale(0.100000,-0.100000)"
fill="#000000" stroke="none">
<path d="M3025 2913 c-11 -2 -56 -16 -99 -30 -43 -14 -110 -29 -149 -33 -83
-9 -116 -31 -137 -88 -16 -48 -7 -96 35 -189 l24 -53 349 0 c284 0 352 3 361
14 26 31 63 161 58 204 -8 69 -63 112 -145 112 -22 0 -82 13 -133 29 -115 34
-138 39 -164 34z"/>
<path d="M2710 2408 c-32 -91 -124 -384 -146 -468 -14 -52 -28 -131 -31 -176
-6 -93 3 -114 67 -159 37 -26 39 -26 71 -9 39 20 167 64 186 64 10 0 12 -9 8
-32 -3 -19 0 -44 7 -57 15 -29 71 -60 123 -68 34 -5 37 -4 33 17 -2 18 -13 25
-50 35 -52 13 -78 30 -78 52 0 8 12 54 27 100 26 84 26 86 7 99 -60 41 -84 62
-109 96 -22 29 -36 38 -58 38 -58 0 -129 111 -113 176 5 19 13 24 37 24 101 0
248 71 337 162 48 50 102 119 102 132 0 4 -92 6 -204 6 l-204 0 -12 -32z"/>
<path d="M3155 2418 c15 -47 36 -78 77 -112 127 -103 163 -129 187 -135 35
-10 49 -64 32 -123 -17 -54 -70 -108 -108 -108 -21 0 -35 -10 -56 -41 -16 -22
-51 -54 -77 -72 l-49 -33 29 -85 c17 -46 30 -90 30 -96 0 -23 -39 -52 -85 -64
-25 -6 -45 -16 -45 -21 0 -6 -13 -38 -30 -72 -42 -86 -61 -209 -67 -438 -5
-173 -4 -198 9 -198 13 0 15 27 15 198 -1 210 12 331 44 417 19 51 20 52 80
69 96 26 138 81 108 138 -11 20 -9 21 24 15 20 -3 77 -22 127 -42 l90 -36 30
21 c86 61 81 160 -31 565 -28 99 -58 200 -67 225 l-18 45 -128 3 -128 3 7 -23z"/>
<path d="M3060 1340 c0 -15 5 -20 18 -18 9 2 17 10 17 18 0 8 -8 16 -17 18
-13 2 -18 -3 -18 -18z"/>
<path d="M3260 1300 c0 -5 5 -10 11 -10 6 0 28 -13 49 -30 l37 -30 42 30 c22
17 45 30 51 30 5 0 10 5 10 10 0 6 -40 10 -100 10 -60 0 -100 -4 -100 -10z"/>
<path d="M3062 1173 c2 -10 10 -18 18 -18 22 0 18 29 -3 33 -14 3 -18 -1 -15
-15z"/>
<path d="M3067 1023 c-4 -3 -7 -12 -7 -20 0 -15 26 -18 34 -4 7 11 -18 33 -27
24z"/>
</g>
</svg>
